# xmcd CD database file
#
# Track frame offsets:
#	150
#	23685
#	46355
#	70750
#	95262
#
# Disc length: 1814 seconds
#
# Revision: 0
# Processed by: cddbd v1.5.1PL2 Copyright (c) Steve Scherf et al.
# Submitted via: CDex 1.51
#
DISCID=34071405
DTITLE=井手麻理子 - 風と共にながれて
DYEAR=1900
DGENRE=R&B
TTITLE0=風と共にながれて
TTITLE1=魂の音
TTITLE2=CRAWL
TTITLE3=風と共にながれて(TSUTCHIE MIX)
TTITLE4=風と共にながれて(1-1-1 MIX)
EXTD=
EXTT0=
EXTT1=
EXTT2=
EXTT3=
EXTT4=
PLAYORDER=
